# xmcd
#
# Track frame offsets: 
#        150
#        15070
#        30950
#        45655
#        58665
#        77507
#        94060
#        108612
#        132925
#        147505
#        168902
#        182235
#        195582
#        219212
#        233570
#        248260
#
# Disc length: 3536 seconds
#
# Revision: 3
# Processed by: cddbd v1.5.2PL0 Copyright (c) Steve Scherf et al.
# Submitted via: ExactAudioCopy v1.3
#
DISCID=bf0dce10
DTITLE=The Stylistics - Greatest Hits
DYEAR=1990
DGENRE=Soul
TTITLE0=Can't Give You Anything (But My Love)
TTITLE1=Hey Girl Come And Get It
TTITLE2=Rockin' Roll Baby
TTITLE3=Sing Baby Sing
TTITLE4=Star On A TV Show
TTITLE5=Sixteen Bars
TTITLE6=Funky Weekend
TTITLE7=The Lion Sleeps Tonight
TTITLE8=Can't Help Falling In Love
TTITLE9=You  Make Me Feel Brand New
TTITLE10=Na-Na Is The Saddest Word
TTITLE11=Let's Put It All Together
TTITLE12=Heavy Fallin' Out
TTITLE13=Baby Don't Change Your Mind
TTITLE14=A Good Thing Going On
TTITLE15=Thank You Baby
EXTD=ID3G:   0 YEAR: 1980
EXTT0=
EXTT1=
EXTT2=
EXTT3=
EXTT4=
EXTT5=
EXTT6=
EXTT7=
EXTT8=
EXTT9=
EXTT10=
EXTT11=
EXTT12=
EXTT13=
EXTT14=
EXTT15=
PLAYORDER=
